Coordinates
nRows=9
nColumns=38

# SIMM Motion File Header:
name Coordinates
datacolumns 38
datarows 9
otherdata 1
range 1.95930000000000000000 1.96730000000000000000

Units are S.I. units (second, meters, Newtons, ...)
Angles are in degrees.

endheader
time	pelvis_tilt	pelvis_list	pelvis_rotation	pelvis_tx	pelvis_ty	pelvis_tz	hip_flexion_r	hip_adduction_r	hip_rotation_r	knee_angle_r	ankle_angle_r	subtalar_angle_r	mtp_angle_r	hip_flexion_l	hip_adduction_l	hip_rotation_l	knee_angle_l	ankle_angle_l	subtalar_angle_l	mtp_angle_l	lumbar_extension	lumbar_bending	lumbar_rotation	arm_flex_r	arm_add_r	arm_rot_r	elbow_flex_r	pro_sup_r	wrist_flex_r	wrist_dev_r	arm_flex_l	arm_add_l	arm_rot_l	elbow_flex_l	pro_sup_l	wrist_flex_l	wrist_dev_l
      1.95930000000000000000	     -7.01001035241445260000	      1.38324011053852550000	      2.16994508069895220000	      1.17854016382973240000	      0.96089895735186315000	     -0.31762181766790659000	     52.69934477332402200000	     -0.74053988271204962000	     -4.30270733398023890000	   -121.81832588203606000000	     -3.33437389236308720000	     -0.00000000000033968903	      0.00000000000055409575	      4.86428548505486450000	      6.89729399148553670000	      6.08202177878545760000	    -36.25855756827546400000	     14.48274498021258700000	      0.00000000000002395358	     -0.00000000000003897137	     -6.52000598476256780000	     -4.84714392779222520000	    -11.01231796385135000000	    -36.77953920148727500000	    -13.17815398096381700000	    -16.76540868898756300000	     53.28401786673462900000	     62.77666061544218900000	      0.00000000000005459804	     -0.00000000000005329287	    -13.03778338526359100000	    -21.45444273217855300000	      1.55088209274040790000	    128.98050098649000000000	     90.74382653533604100000	     -0.00000000000003312872	     -0.00000000000001374374
      1.96030000000000020000	     -6.99673131243858840000	      1.23384612262722130000	      2.08876575312842580000	      1.17901286232195510000	      0.96156348615334997000	     -0.31759244261442748000	     52.90042444253527500000	     -0.57970032246480718000	     -4.35227294471100200000	   -121.25328984081312000000	     -3.27666971383164450000	     -0.00000000000034063829	      0.00000000000055564719	      4.37725463187290660000	      6.70812396793917820000	      6.10543569810380850000	    -35.92971490923302700000	     13.96967488241449500000	      0.00000000000002455211	     -0.00000000000003878115	     -6.46556054996585060000	     -4.64706773549064420000	    -11.09928177986508400000	    -36.92625161201662800000	    -13.22784852975849800000	    -16.96722224692437600000	     53.38828291124222900000	     62.89697573188537700000	      0.00000000000005470672	     -0.00000000000005347040	    -12.89750802294757300000	    -21.36447720172334600000	      1.55238154920829910000	    129.37048394062941000000	     90.75111831675360500000	     -0.00000000000003323731	     -0.00000000000001351238
      1.96130000000000000000	     -6.98313810556643590000	      1.08349229235212110000	      2.00439254186715930000	      1.17949527643597070000	      0.96223928544334059000	     -0.31755917749765533000	     53.09352432484180900000	     -0.41598378537878850000	     -4.40196863249992370000	   -120.68013382339910000000	     -3.22106961928609840000	     -0.00000000000034158242	      0.00000000000055719794	      3.88828885187976200000	      6.51793314513656250000	      6.12379695057908350000	    -35.59475381616346800000	     13.43612903893303000000	      0.00000000000002517186	     -0.00000000000003870805	     -6.41090637132557450000	     -4.44575531411455940000	    -11.18259500660447800000	    -37.07251774877256900000	    -13.27863309699336900000	    -17.16566714431325400000	     53.49296704507853000000	     63.01878820913566400000	      0.00000000000005481693	     -0.00000000000005364677	    -12.76171610431811000000	    -21.27371568512347400000	      1.55415069831842660000	    129.76050436078768000000	     90.75914072355773500000	     -0.00000000000003334536	     -0.00000000000001328437
      1.96230000000000020000	     -6.96950898080098470000	      0.93218994230979202000	      1.91678049004150890000	      1.17998699071897390000	      0.96292552263054176000	     -0.31752181243448496000	     53.27903454294375500000	     -0.24930991662511620000	     -4.45167976404732530000	   -120.09897996833847000000	     -3.16773523314689550000	     -0.00000000000034252104	      0.00000000000055875040	      3.39779628101109350000	      6.32678973515507790000	      6.13686712526885890000	    -35.25376306571816100000	     12.88238090698128600000	      0.00000000000002579981	     -0.00000000000003866766	     -6.35581811860334960000	     -4.24325099539251570000	    -11.26219501706441100000	    -37.21837510382584200000	    -13.33048069781035700000	    -17.36068334922342200000	     53.59806257180336800000	     63.14159721774988300000	      0.00000000000005492634	     -0.00000000000005382260	    -12.63038399392856100000	    -21.18220276494689700000	      1.55624457799540910000	    130.15052720278217000000	     90.76808122562067600000	     -0.00000000000003345391	     -0.00000000000001304987
      1.96330000000000000000	     -6.95597522441297040000	      0.77994763969218928000	      1.82589143930775720000	      1.18048764745888060000	      0.96362157769511203000	     -0.31748014034680738000	     53.45722069085724100000	     -0.07960107104279610900	     -4.50130220298005930000	   -119.50998045106221000000	     -3.11674004547865690000	     -0.00000000000034346098	      0.00000000000056030403	      2.90602451550676790000	      6.13475534231656110000	      6.14442428121072660000	    -34.90682031224621800000	     12.30875471965254200000	      0.00000000000002641636	     -0.00000000000003865112	     -6.30023368815291460000	     -4.03958837610956060000	    -11.33802633861139600000	    -37.36384956931504300000	    -13.38336365222264300000	    -17.55221513676102400000	     53.70357954091330300000	     63.26490310328027500000	      0.00000000000005503694	     -0.00000000000005399685	    -12.50345452480809200000	    -21.08999006027575300000	      1.55872189077316500000	    130.54051948543983000000	     90.77810139726612700000	     -0.00000000000003356365	     -0.00000000000001282167
      1.96430000000000020000	     -6.94224033475836940000	      0.62671081308413179000	      1.73169009314511420000	      1.18099708562593090000	      0.96432752025823443000	     -0.31743393616449911000	     53.62779125844362900000	      0.09328048112474135500	     -4.55079317883999850000	   -118.91317879253799000000	     -3.06817749098018220000	     -0.00000000000034440363	      0.00000000000056185885	      2.41273443787717050000	      5.94180619042583570000	      6.14626128104286980000	    -34.55391817025262200000	     11.71561850449248600000	      0.00000000000002700503	     -0.00000000000003866838	     -6.24456323288057020000	     -3.83471613403191820000	    -11.41002818665856800000	    -37.50891402765851300000	    -13.43725385881350200000	    -17.74021144239819800000	     53.80955133732081200000	     63.38820363338568600000	      0.00000000000005515042	     -0.00000000000005416961	    -12.38078090190441900000	    -20.99713773113408200000	      1.56165543837217590000	    130.93044284130951000000	     90.78932546704962200000	     -0.00000000000003367245	     -0.00000000000001261021
      1.96530000000000000000	     -6.92864059085425850000	      0.47248652139349095000	      1.63413744846608910000	      1.18151487911025170000	      0.96504243932909650000	     -0.31738298772467011000	     53.79117066337019500000	      0.26942295850994064000	     -4.60003198722789270000	   -118.30865156511194000000	     -3.02226696903371070000	     -0.00000000000034535291	      0.00000000000056341355	      1.91843689584941380000	      5.74801705673951970000	      6.14215217576717980000	    -34.19523670968898400000	     11.10341679703263100000	      0.00000000000002754050	     -0.00000000000003856952	     -6.18851324019623840000	     -3.62867364881175370000	    -11.47814213146766700000	    -37.65362290272400300000	    -13.49213181481352700000	    -17.92462515550538200000	     53.91598126751957000000	     63.51102017132974700000	      0.00000000000005526671	     -0.00000000000005434223	    -12.26234023211499000000	    -20.90368094670143200000	      1.56509957681993450000	    131.32025467400419000000	     90.80189975505581400000	     -0.00000000000003377877	     -0.00000000000001241465
      1.96630000000000020000	     -6.91568814475522050000	      0.31730408141297245000	      1.53325212290217210000	      1.18204050674652520000	      0.96576513933273200000	     -0.31732716265800659000	     53.94801980112513500000	      0.44884342115303377000	     -4.64891200470092510000	   -117.69652924097502000000	     -2.97918329051098140000	     -0.00000000000034630708	      0.00000000000056496778	      1.42386896950716310000	      5.55349930443935410000	      6.13193612959968350000	    -33.83105300803311600000	     10.47266576487301600000	      0.00000000000002803409	     -0.00000000000003845082	     -6.13159903539977960000	     -3.42152241011406270000	    -11.54237317803792000000	    -37.79805597265316700000	    -13.54797939100570800000	    -18.10541435393583900000	     54.02286833454979800000	     63.63289002098203900000	      0.00000000000005538580	     -0.00000000000005451514	    -12.14813994774614200000	    -20.80965142249416300000	      1.56910329601257610000	    131.70991035191955000000	     90.81596123657891400000	     -0.00000000000003388573	     -0.00000000000001223482
      1.96730000000000000000	     -6.90380899090668710000	      0.16120541474116257000	      1.42904175501384920000	      1.18257346227846780000	      0.96649454400844970000	     -0.31726631517013032000	     54.09890255731344400000	      0.63156039093983529000	     -4.69731379372981190000	   -117.07693645324574000000	     -2.93908814104733510000	     -0.00000000000034726305	      0.00000000000056652131	      0.92967382151257283000	      5.35837377263583740000	      6.11545793108194320000	    -33.46164673761567300000	      9.82393448567627030000	      0.00000000000002850372	     -0.00000000000003834390	     -6.07343138876514030000	     -3.21333192011070510000	    -11.60271813051249600000	    -37.94228571729431100000	    -13.60477699083737100000	    -18.28254229319175600000	     54.13021890229494900000	     63.75336279767791600000	      0.00000000000005550431	     -0.00000000000005468904	    -12.03816494349819500000	    -20.71508575014824100000	      1.57371781773873740000	    132.09936153216526000000	     90.83162143299412600000	     -0.00000000000003399565	     -0.00000000000001206734
